<?xml version="1.0" standalone="no"?>
<!DOCTYPE svg PUBLIC "-//W3C//DTD SVG 20010904//EN"
 "http://www.w3.org/TR/2001/REC-SVG-20010904/DTD/svg10.dtd">
<svg version="1.0" xmlns="http://www.w3.org/2000/svg"
 width="1024.000000pt" height="1024.000000pt" viewBox="0 0 1024.000000 1024.000000"
 preserveAspectRatio="xMidYMid meet">
<metadata>
Created by potrace 1.14, written by Peter Selinger 2001-2017
</metadata>
<g transform="translate(0.000000,1024.000000) scale(0.100000,-0.100000)"
fill="#000000" stroke="none">
<path d="M8557 7034 c-3 -2 -193 -13 -234 -14 -33 0 -33 -1 -166 -267 -74
-148 -144 -288 -157 -313 l-23 -45 -18 60 c-78 268 -154 511 -163 517 -5 4
-13 5 -16 3 -3 -1 -57 -6 -120 -9 -190 -11 -285 -18 -288 -20 -3 -4 33 -93 49
-119 17 -30 6 -28 -45 8 -126 90 -298 108 -656 70 -19 -2 -78 -7 -130 -11 -52
-3 -106 -8 -120 -9 -14 -2 -34 -3 -46 -4 -11 -1 -21 -7 -21 -13 0 -25 -15
-213 -18 -228 -1 -8 -6 -52 -10 -97 -4 -46 -10 -83 -14 -83 -3 0 -24 33 -45
73 -75 136 -203 234 -383 293 -174 57 -451 31 -627 -58 -135 -68 -322 -217
-387 -308 -31 -42 -119 -199 -119 -210 0 -5 -5 -12 -10 -15 -7 -4 -9 2 -6 17
3 12 8 56 11 96 3 41 7 88 10 105 2 18 7 61 10 97 3 36 8 92 11 125 11 105 17
98 -83 91 -49 -4 -127 -9 -174 -12 -99 -6 -117 -8 -123 -15 -4 -4 -12 -74 -21
-184 -8 -99 -16 -185 -30 -335 -10 -99 -25 -260 -30 -320 -1 -14 -3 -29 -3
-34 -2 -9 -62 78 -62 88 0 2 -41 70 -91 152 -50 81 -101 164 -113 185 -11 20
-73 123 -136 228 -96 158 -118 189 -135 186 -11 -3 -58 -7 -105 -10 -175 -12
-235 -16 -237 -19 -1 -1 -5 -27 -8 -57 -2 -30 -8 -81 -11 -114 -9 -79 -11
-104 -19 -202 -3 -44 -7 -90 -9 -100 -3 -11 -7 -53 -11 -94 -3 -41 -8 -90 -10
-109 -2 -19 -6 -71 -10 -115 -3 -44 -8 -91 -10 -105 -2 -14 -7 -59 -10 -100
-4 -41 -8 -86 -10 -100 -2 -14 -6 -59 -10 -100 -3 -41 -7 -84 -10 -95 -2 -11
-4 -40 -4 -64 -1 -24 -3 -42 -6 -40 -3 4 -70 220 -186 604 -17 55 -45 147 -63
205 -18 58 -64 207 -102 332 l-68 228 -55 -5 c-31 -3 -94 -7 -141 -10 -134 -9
-126 -4 -177 -113 -25 -53 -61 -131 -80 -172 -89 -189 -117 -249 -140 -300
-14 -30 -52 -111 -84 -179 -33 -68 -59 -125 -59 -127 0 -2 -34 -73 -75 -159
-41 -86 -75 -158 -75 -160 0 -1 -24 -54 -54 -116 -29 -63 -68 -145 -86 -184
-18 -38 -41 -88 -51 -109 -11 -22 -19 -41 -19 -44 0 -2 30 -1 68 2 62 5 263
17 324 20 37 2 49 17 88 116 18 47 37 89 42 94 4 6 8 18 8 28 0 17 25 28 60
26 8 0 65 2 125 6 61 3 167 9 236 12 138 5 134 7 145 -56 3 -14 10 -43 16 -65
5 -22 12 -51 15 -64 6 -38 9 -39 65 -36 29 2 112 6 183 9 72 4 162 9 200 11
39 3 129 7 200 11 72 3 131 6 132 7 2 3 12 107 18 187 3 36 8 88 10 115 11
104 14 142 19 200 24 277 26 298 32 340 3 22 6 41 7 42 2 1 78 -123 137 -224
14 -23 104 -173 200 -332 l174 -291 41 5 c22 2 78 7 125 11 47 4 96 8 110 9
14 2 34 3 45 4 12 1 21 8 21 19 1 17 10 120 19 205 7 68 13 123 20 197 3 36 7
73 9 82 3 24 16 35 16 14 0 -10 15 -50 34 -90 96 -208 241 -338 437 -392 51
-15 99 -18 234 -17 156 1 177 3 254 28 100 32 214 91 290 149 73 55 190 175
221 226 14 22 35 55 48 73 l23 32 -6 -85 c-3 -47 -8 -101 -10 -120 -3 -27 -15
-176 -17 -200 -1 -18 3 -31 10 -27 4 3 52 8 107 11 212 14 250 19 257 30 4 6
8 29 9 51 0 22 2 49 4 60 3 11 7 52 10 90 3 39 8 79 10 90 2 11 7 55 10 99 4
43 9 85 10 95 2 9 4 18 4 21 1 4 75 -138 208 -398 l48 -93 80 5 c44 3 139 8
210 12 194 10 200 10 200 20 0 5 -75 122 -167 260 -93 138 -168 254 -168 258
0 4 20 15 45 26 88 38 201 126 259 202 70 92 115 219 120 341 2 43 6 80 8 82
2 2 50 -120 107 -272 l103 -277 -6 -70 c-3 -39 -8 -87 -11 -106 -2 -19 -7 -59
-10 -90 -3 -30 -9 -91 -15 -135 -5 -44 -12 -110 -16 -147 l-6 -68 69 5 c37 2
106 7 153 10 47 4 102 7 122 8 20 2 39 5 42 8 6 6 13 45 21 129 10 105 18 177
29 265 3 22 8 65 11 95 3 30 7 70 10 88 2 18 90 189 196 380 105 191 205 372
222 402 16 30 46 84 66 120 21 36 40 72 44 80 4 8 18 34 31 58 l25 42 -76 -2
c-41 -2 -75 -4 -76 -4z m-1505 -499 c43 -21 61 -57 59 -118 -1 -60 -7 -84 -31
-123 -42 -67 -120 -104 -250 -119 -30 -4 -68 -8 -83 -10 l-29 -4 7 72 c4 40 8
79 10 87 3 16 16 158 19 200 0 14 5 28 11 32 5 4 63 5 130 4 90 -3 129 -8 157
-21z m-1309 -100 c26 -10 81 -41 122 -71 69 -49 78 -53 122 -49 27 2 89 6 138
9 50 4 121 9 159 12 l68 5 -6 -77 c-3 -43 -7 -79 -9 -80 -5 -5 -91 -14 -192
-19 -55 -3 -127 -8 -160 -10 -33 -3 -100 -7 -150 -10 -106 -6 -309 -20 -346
-24 -3 -1 -6 -7 -6 -13 -1 -16 -13 -122 -19 -163 -2 -16 -7 -52 -10 -80 -3
-27 -8 -54 -11 -58 -5 -8 253 0 299 8 42 8 143 7 146 -1 1 -5 -30 -42 -69 -81
-185 -187 -422 -202 -580 -37 -65 69 -99 147 -104 240 -4 84 10 145 56 239 50
102 116 171 211 218 133 67 234 79 341 42z m-2978 -525 c19 -96 37 -184 39
-195 3 -11 9 -40 15 -65 6 -25 11 -47 11 -50 0 -3 -24 -6 -52 -7 -29 -1 -101
-5 -160 -8 -60 -3 -108 -3 -108 0 0 7 199 495 208 510 7 11 4 23 47 -185z"/>
<path d="M9317 5354 c-1 -1 -54 -5 -117 -8 -111 -7 -184 -12 -320 -21 -36 -2
-108 -7 -160 -10 -52 -3 -124 -7 -160 -10 -36 -2 -110 -7 -165 -11 -55 -3
-117 -7 -138 -8 -21 -2 -42 -7 -47 -12 -4 -5 -36 -81 -69 -169 -34 -88 -65
-169 -70 -180 -5 -11 -26 -65 -46 -120 -21 -55 -43 -113 -51 -130 -7 -16 -52
-133 -100 -260 -48 -126 -91 -234 -96 -239 -4 -6 -9 -1 -9 12 -1 12 -2 25 -3
30 -1 4 -5 30 -10 57 -9 63 -8 53 -55 345 -23 135 -43 263 -46 285 -3 22 -8
49 -10 61 -3 12 -7 39 -11 60 -3 21 -12 77 -20 123 -8 46 -14 86 -14 89 0 2
-44 2 -97 -2 -54 -3 -143 -9 -198 -12 -55 -3 -105 -7 -112 -9 -14 -5 -15 1 37
-253 22 -107 42 -208 45 -225 3 -16 7 -33 9 -36 2 -3 7 -24 10 -46 4 -22 15
-80 26 -130 10 -49 21 -103 24 -120 3 -16 8 -41 11 -55 7 -35 34 -170 40 -200
17 -80 27 -128 31 -147 7 -37 12 -62 34 -173 12 -58 24 -116 26 -130 12 -71
20 -85 45 -83 13 1 76 4 139 8 63 4 133 8 155 10 22 2 56 4 76 4 32 1 38 5 49
34 7 17 19 46 26 62 21 50 116 282 259 635 75 184 140 344 145 355 5 11 50
119 100 240 l91 220 -6 -70 c-4 -38 -8 -81 -10 -95 -1 -14 -5 -54 -9 -90 -3
-36 -8 -81 -10 -100 -8 -61 -16 -133 -21 -190 -3 -30 -7 -71 -10 -90 -5 -42
-17 -155 -20 -190 -1 -14 -6 -59 -9 -100 -4 -41 -9 -82 -11 -90 -2 -8 -6 -46
-10 -85 -5 -66 -8 -91 -20 -182 -2 -21 -7 -69 -10 -108 -3 -38 -8 -83 -11 -98
l-6 -28 74 5 c40 3 120 8 178 11 58 3 125 8 150 10 25 2 97 7 160 11 63 4 133
8 155 10 22 1 64 3 93 5 29 1 55 6 58 10 3 5 11 66 19 136 8 71 17 147 20 170
l5 42 -52 -4 c-29 -2 -100 -7 -158 -10 -58 -3 -138 -8 -178 -10 l-74 -4 6 42
c2 23 8 81 12 130 3 48 10 89 14 92 9 5 73 10 260 20 179 10 200 11 205 17 6
5 8 24 20 142 4 38 8 79 10 90 2 12 6 52 10 89 l6 68 -53 -5 c-29 -3 -87 -8
-128 -11 -124 -10 -172 -15 -234 -21 l-59 -6 8 69 c4 37 8 77 10 88 1 11 3 34
4 52 1 38 6 40 121 48 47 4 101 8 120 10 19 2 78 7 130 10 52 4 98 9 101 11 8
4 16 68 34 254 4 36 8 78 11 93 l4 28 -76 -3 c-41 -2 -76 -4 -77 -4z"/>
<path d="M7047 5194 c-2 -2 -229 -16 -274 -17 -7 0 -14 -5 -14 -11 -1 -6 -3
-20 -4 -31 -1 -11 -6 -54 -10 -95 -4 -41 -8 -77 -10 -80 -1 -3 -6 -44 -10 -92
-3 -48 -8 -98 -10 -110 -2 -13 -6 -50 -10 -83 -3 -33 -10 -94 -15 -135 -5 -41
-12 -104 -15 -140 -3 -36 -7 -81 -10 -100 -2 -19 -7 -60 -10 -90 -4 -30 -8
-69 -10 -86 -2 -16 -7 -59 -10 -95 -4 -35 -8 -77 -10 -94 -3 -16 -7 -59 -10
-95 -4 -36 -8 -76 -10 -90 -2 -14 -7 -56 -11 -95 -3 -38 -8 -78 -10 -88 -3
-18 4 -18 108 -12 61 4 120 9 131 11 11 2 47 4 79 5 32 1 58 5 59 8 0 3 2 13
3 21 2 8 7 49 11 90 4 41 9 84 11 95 2 11 6 53 9 94 3 41 7 77 9 80 2 3 7 47
11 96 4 50 8 92 10 95 2 3 6 41 9 85 3 44 8 91 10 105 3 14 7 54 11 90 4 36 8
78 10 94 2 16 6 57 9 90 4 34 8 72 11 86 2 14 6 57 10 95 3 39 8 84 10 100 5
31 9 73 20 180 4 33 8 74 10 92 3 31 3 31 -41 30 -25 -1 -46 -2 -47 -3z"/>
<path d="M6679 5176 c-2 -2 -58 -7 -124 -10 -66 -4 -140 -8 -165 -11 -25 -2
-90 -7 -145 -10 -55 -3 -127 -8 -160 -10 -65 -5 -168 -12 -310 -21 -49 -3 -93
-8 -97 -12 -3 -4 -9 -41 -13 -82 -4 -41 -8 -88 -10 -105 -2 -16 -7 -61 -11
-100 -3 -38 -9 -74 -11 -78 -5 -8 16 -7 211 9 l88 7 -7 -69 c-3 -38 -8 -82
-10 -99 -2 -16 -7 -57 -10 -90 -3 -33 -8 -76 -10 -95 -2 -19 -6 -64 -10 -100
-4 -36 -8 -76 -10 -90 -2 -14 -7 -59 -10 -100 -4 -41 -8 -82 -10 -90 -2 -8 -6
-53 -10 -100 -4 -47 -8 -92 -10 -100 -2 -8 -6 -53 -10 -100 -4 -47 -10 -91
-14 -97 -5 -10 -133 412 -176 577 -8 33 -145 507 -154 535 -5 17 -28 95 -51
175 -23 80 -44 153 -47 164 -4 16 -13 17 -77 12 -39 -3 -109 -8 -156 -12 -47
-3 -90 -11 -96 -18 -11 -10 -32 -55 -152 -316 -16 -36 -46 -101 -67 -145 -20
-44 -73 -158 -117 -254 -44 -96 -101 -220 -127 -275 -26 -56 -94 -203 -152
-328 -94 -206 -124 -262 -114 -210 1 9 6 56 9 104 4 47 9 98 12 113 3 15 1 24
-3 22 -4 -3 -55 -8 -113 -12 -58 -4 -121 -8 -140 -10 -19 -2 -78 -6 -130 -10
-52 -4 -99 -9 -104 -12 -5 -3 -6 25 -2 63 11 136 19 199 23 203 5 6 11 7 113
15 47 4 105 9 130 11 25 2 84 7 131 10 118 9 122 10 125 28 1 9 5 53 8 99 3
46 9 121 12 167 l6 83 -113 -6 c-63 -3 -163 -9 -224 -12 -60 -3 -112 -6 -115
-6 -22 -1 -40 3 -37 10 3 4 8 36 11 72 10 96 17 154 19 156 3 2 405 26 465 27
13 1 22 8 23 17 0 8 2 24 3 35 4 26 15 126 22 195 3 30 7 71 10 91 3 28 1 38
-12 43 -9 3 -19 4 -23 2 -4 -3 -58 -7 -121 -11 -63 -3 -137 -8 -165 -10 -27
-2 -97 -6 -155 -10 -223 -12 -393 -25 -397 -29 -3 -3 -20 -124 -28 -206 -11
-108 -14 -133 -20 -138 -3 -3 -5 4 -5 15 0 33 -58 139 -98 177 -105 102 -256
133 -547 112 -62 -5 -323 -18 -387 -20 -26 -1 -49 -4 -52 -7 -3 -3 -8 -34 -11
-69 -4 -36 -8 -75 -10 -88 -2 -12 -7 -64 -11 -115 -4 -50 -8 -99 -9 -106 -3
-27 -22 -22 -35 9 -7 16 -16 30 -20 30 -4 0 -14 15 -21 32 -21 52 -146 171
-214 205 -154 77 -400 99 -580 52 -220 -58 -360 -147 -521 -332 -86 -100 -190
-308 -208 -417 -3 -19 -8 -48 -11 -64 -3 -16 -7 -63 -7 -105 -5 -257 81 -446
267 -588 80 -61 209 -118 286 -128 30 -4 74 -10 99 -14 159 -24 387 29 545
126 126 78 179 131 328 325 17 23 17 22 12 -27 -2 -27 -7 -72 -9 -100 -8 -79
-18 -177 -21 -208 l-4 -27 157 6 c86 4 172 7 190 7 17 0 32 1 32 1 0 1 4 37 9
81 6 44 13 109 16 145 4 36 8 78 10 94 2 15 7 64 11 108 4 43 10 76 15 71 8
-8 103 -185 199 -370 l53 -102 46 4 c25 2 93 6 151 10 58 3 130 8 160 10 30 2
102 7 160 10 58 3 130 8 160 10 170 11 270 18 310 20 25 1 101 6 170 10 69 4
141 9 160 10 19 1 85 6 145 10 61 3 135 8 165 10 30 2 61 4 67 5 7 0 38 50 68
110 l55 110 43 1 c23 0 67 2 97 4 30 1 118 6 195 9 77 4 153 9 169 10 33 4 43
-14 71 -132 l17 -73 97 6 c53 3 141 7 196 10 55 3 134 7 175 10 41 3 129 7
195 11 66 3 121 6 121 7 4 4 27 195 39 322 3 28 7 66 10 85 3 20 7 60 10 90 7
83 16 165 31 285 3 28 7 66 9 86 2 20 6 65 10 100 4 35 9 75 10 89 1 14 6 57
11 95 4 39 8 73 8 77 2 13 12 16 91 23 77 7 96 9 193 16 23 2 42 8 43 13 0 6
2 18 3 26 2 8 7 51 11 95 5 44 9 87 10 95 10 77 16 160 13 160 -3 0 -7 -2 -9
-4z m-3635 -631 c104 -14 136 -91 91 -224 -23 -70 -67 -104 -164 -128 -81 -20
-207 -25 -205 -8 1 6 5 46 9 90 4 44 9 91 10 105 2 14 7 57 11 97 l7 72 36 3
c45 4 154 0 205 -7z m2140 -105 c10 -47 20 -94 22 -105 2 -11 16 -76 30 -145
15 -69 27 -131 28 -139 1 -16 -1 -16 -114 -25 -47 -3 -109 -9 -139 -12 -37 -5
-52 -3 -50 4 49 142 196 519 200 514 3 -4 14 -45 23 -92z m-3362 10 c61 -23
139 -88 179 -149 34 -54 13 -50 199 -36 208 16 201 17 196 -13 -3 -15 -8 -58
-11 -97 -4 -38 -8 -81 -10 -95 -2 -14 -7 -59 -10 -100 -4 -41 -10 -78 -13 -82
-4 -3 -85 -9 -180 -12 l-174 -6 -86 -89 c-127 -129 -218 -171 -371 -166 -71 2
-91 7 -149 36 -56 29 -74 44 -109 97 -106 158 -103 324 11 495 69 104 157 178
255 214 73 27 206 29 273 3z m1693 -282 c-4 -35 -9 -74 -10 -88 -6 -66 -17
-178 -20 -205 -2 -16 -6 -59 -10 -95 -3 -36 -8 -81 -10 -100 -5 -52 -17 -171
-20 -203 -2 -15 -5 -30 -8 -33 -5 -6 -287 410 -287 423 0 4 28 23 63 42 60 33
112 70 170 121 34 30 127 166 127 186 0 8 3 14 6 14 3 0 2 -28 -1 -62z"/>
</g>
</svg>
