<?xml version="1.0" standalone="no"?>
<!DOCTYPE svg PUBLIC "-//W3C//DTD SVG 20010904//EN"
 "http://www.w3.org/TR/2001/REC-SVG-20010904/DTD/svg10.dtd">
<svg version="1.0" xmlns="http://www.w3.org/2000/svg"
 width="1024.000000pt" height="1024.000000pt" viewBox="0 0 1024.000000 1024.000000"
 preserveAspectRatio="xMidYMid meet">
<metadata>
Created by potrace 1.14, written by Peter Selinger 2001-2017
</metadata>
<g transform="translate(0.000000,1024.000000) scale(0.100000,-0.100000)"
fill="#000000" stroke="none">
<path d="M5615 8544 c-6 -1 -22 -5 -36 -8 -39 -8 -76 -51 -95 -109 -10 -29
-17 -53 -17 -54 1 -1 -5 -24 -14 -50 -16 -55 -58 -198 -65 -228 -3 -11 -22
-76 -42 -145 -72 -242 -183 -626 -191 -660 -3 -8 -18 -61 -34 -117 -72 -240
-213 -730 -217 -752 -3 -13 -9 -32 -14 -41 -5 -9 -11 -28 -13 -41 -3 -13 -11
-44 -18 -69 -7 -25 -14 -49 -15 -55 -3 -10 -99 -341 -199 -685 -31 -107 -58
-202 -60 -210 -6 -23 -157 -542 -176 -605 -5 -16 -41 -140 -80 -275 -38 -135
-78 -274 -89 -310 -11 -36 -90 -308 -176 -605 -85 -297 -201 -695 -256 -885
-159 -547 -162 -563 -144 -617 9 -26 61 -67 101 -78 40 -11 24 -6 255 -75 263
-78 345 -102 452 -135 115 -34 126 -37 172 -36 41 1 79 20 108 55 15 19 72
180 83 234 2 12 6 26 9 30 3 5 7 19 10 33 3 13 14 56 26 94 12 39 41 138 65
220 24 83 50 171 58 197 8 27 13 48 11 48 -2 0 1 12 7 28 6 15 12 34 14 42 2
8 29 101 60 205 31 105 58 197 60 207 2 9 20 72 40 140 21 67 38 128 39 133 5
22 29 104 51 175 27 90 75 256 80 279 2 9 35 124 74 256 38 132 104 359 146
505 42 146 80 276 84 290 5 14 16 50 24 80 59 208 176 614 222 770 20 69 41
139 45 155 4 17 32 116 63 220 105 359 169 580 187 645 10 36 44 153 75 260
31 107 58 202 61 210 2 8 13 47 24 85 12 39 23 79 25 89 3 11 11 40 19 65 8
25 45 150 82 276 134 466 135 472 83 525 -26 25 -138 70 -214 86 -5 1 -50 14
-100 28 -558 166 -628 185 -650 180z"/>
<path d="M2869 7061 c-24 -16 -66 -50 -93 -76 -27 -25 -106 -99 -174 -163 -69
-64 -146 -137 -172 -162 -39 -37 -198 -187 -309 -290 -15 -14 -92 -86 -171
-161 -80 -75 -161 -151 -180 -169 -32 -29 -258 -241 -284 -265 -6 -6 -83 -78
-171 -160 -88 -82 -165 -154 -171 -160 -6 -5 -68 -64 -138 -130 -135 -127
-146 -140 -153 -191 -9 -67 0 -78 372 -424 44 -41 112 -104 150 -141 39 -37
80 -76 92 -86 18 -16 182 -169 329 -308 37 -35 286 -268 325 -305 36 -33 239
-223 299 -280 26 -25 105 -99 175 -165 71 -66 151 -142 179 -169 106 -100 163
-123 229 -90 32 16 53 37 247 244 58 62 121 129 140 150 251 268 299 323 301
344 1 6 2 24 3 39 4 39 -33 91 -115 162 -75 65 -94 81 -196 172 -38 33 -93 82
-123 108 -30 27 -89 78 -129 114 -41 36 -98 86 -126 111 -28 25 -84 74 -125
110 -41 36 -92 81 -114 100 -44 37 -43 37 -102 90 -22 19 -75 67 -119 105 -44
39 -89 78 -99 88 -12 10 -16 20 -10 26 5 4 34 30 65 57 107 95 203 179 225
199 12 11 46 40 75 65 29 25 64 56 79 70 15 14 40 36 56 50 37 32 275 241 290
255 24 21 84 74 199 175 274 240 279 245 269 311 -8 48 -22 67 -163 219 -69
74 -142 153 -163 175 -20 22 -56 61 -80 86 -24 25 -88 93 -143 152 -54 59
-114 116 -133 127 -47 28 -90 25 -143 -9z"/>
<path d="M7255 7071 c-24 -14 -160 -154 -335 -342 -14 -15 -73 -78 -131 -141
-58 -62 -123 -131 -143 -153 -45 -49 -76 -105 -76 -140 0 -43 25 -79 102 -146
40 -35 78 -68 84 -74 6 -5 39 -35 74 -65 35 -30 68 -59 74 -65 6 -5 47 -41 91
-80 44 -38 87 -76 96 -85 9 -8 40 -35 69 -60 29 -25 65 -56 80 -70 15 -14 56
-50 90 -80 35 -30 68 -59 74 -65 26 -23 105 -93 161 -142 33 -28 72 -62 86
-75 14 -12 54 -48 89 -78 109 -94 105 -88 78 -111 -32 -28 -128 -113 -153
-136 -12 -10 -54 -47 -95 -83 -41 -35 -77 -67 -80 -70 -3 -3 -39 -34 -80 -70
-41 -36 -91 -79 -110 -97 -19 -17 -46 -41 -60 -53 -44 -38 -143 -125 -154
-135 -6 -6 -69 -62 -141 -124 -124 -109 -224 -196 -308 -270 -94 -84 -87 -154
28 -277 5 -6 65 -69 131 -140 67 -71 136 -145 154 -164 266 -287 314 -330 372
-330 40 0 102 39 179 112 42 40 133 127 204 193 70 66 151 143 180 170 48 45
213 200 305 285 33 30 260 244 320 300 225 212 312 294 345 325 22 20 100 94
174 163 74 70 149 141 167 157 212 200 232 227 214 295 -12 46 12 21 -400 410
-15 14 -84 79 -155 145 -70 66 -145 136 -165 155 -20 19 -97 91 -170 160 -73
69 -147 139 -164 155 -18 17 -85 80 -150 140 -65 61 -140 130 -166 155 -26 25
-103 97 -170 160 -152 143 -158 148 -313 295 -174 164 -230 191 -302 146z"/>
</g>
</svg>
