<?xml version="1.0" standalone="no"?>
<!DOCTYPE svg PUBLIC "-//W3C//DTD SVG 20010904//EN"
 "http://www.w3.org/TR/2001/REC-SVG-20010904/DTD/svg10.dtd">
<svg version="1.0" xmlns="http://www.w3.org/2000/svg"
 width="750.000000pt" height="750.000000pt" viewBox="0 0 750.000000 750.000000"
 preserveAspectRatio="xMidYMid meet">
<metadata>
Created by potrace 1.14, written by Peter Selinger 2001-2017
</metadata>
<g transform="translate(0.000000,750.000000) scale(0.100000,-0.100000)"
fill="#000000" stroke="none">
<path d="M413 6430 c-135 -32 -261 -152 -303 -288 -20 -64 -20 -95 -20 -2646
0 -2714 -1 -2618 42 -2711 39 -86 121 -164 224 -212 l59 -28 3355 -3 c3101 -3
3360 -2 3418 14 118 31 229 123 281 233 l26 56 0 2650 0 2650 -29 57 c-40 78
-124 161 -205 201 l-66 32 -3375 2 c-1856 0 -3389 -2 -3407 -7z"/>
</g>
</svg>
